<?xml version="1.0" standalone="no"?>
<!DOCTYPE svg PUBLIC "-//W3C//DTD SVG 20010904//EN"
 "http://www.w3.org/TR/2001/REC-SVG-20010904/DTD/svg10.dtd">
<svg version="1.0" xmlns="http://www.w3.org/2000/svg"
 width="512.000000pt" height="512.000000pt" viewBox="0 0 512.000000 512.000000"
 preserveAspectRatio="xMidYMid meet">
<metadata>
Created by potrace 1.14, written by Peter Selinger 2001-2017
</metadata>
<g transform="translate(0.000000,512.000000) scale(0.100000,-0.100000)"
fill="#000000" stroke="none">
<path d="M1024 2861 c-135 -46 -183 -110 -211 -280 -10 -59 34 -182 83 -234
42 -44 68 -59 146 -81 64 -18 97 -20 130 -7 13 5 42 15 66 22 88 26 162 139
162 249 l0 50 -166 0 -165 0 3 -27 3 -28 123 -3 c142 -3 146 -6 112 -77 -54
-111 -207 -144 -319 -70 -75 50 -111 181 -76 284 34 102 96 146 205 145 54 0
72 -5 108 -29 24 -16 50 -41 58 -57 12 -24 21 -28 54 -28 47 0 49 8 15 66 -31
53 -64 77 -143 103 -73 25 -120 26 -188 2z"/>
<path d="M3484 2860 c-78 -25 -144 -82 -181 -158 -37 -77 -39 -190 -4 -270 52
-117 199 -197 318 -173 66 13 134 45 165 79 l23 24 -26 21 c-104 87 -199 168
-203 176 -3 5 29 42 71 82 146 142 144 140 121 162 -27 25 -65 45 -120 61 -70
20 -88 20 -164 -4z"/>
<path d="M1619 2691 c-45 -15 -81 -44 -95 -78 -20 -48 -18 -53 24 -53 33 0 39
4 49 30 14 37 53 53 113 47 50 -6 90 -42 90 -81 0 -30 -8 -33 -111 -42 -137
-11 -189 -50 -189 -142 0 -35 6 -54 21 -71 26 -28 78 -51 114 -51 33 0 121 44
128 65 10 24 23 17 33 -17 8 -26 15 -33 34 -33 l25 0 3 166 c2 159 2 167 -21
200 -12 19 -35 40 -51 48 -35 16 -132 23 -167 12z m181 -238 c0 -43 -31 -94
-70 -115 -41 -22 -110 -20 -134 5 -20 19 -20 66 -1 91 17 23 92 44 158 45 45
1 47 0 47 -26z"/>
<path d="M2165 2686 c-17 -7 -36 -20 -44 -29 -16 -20 -31 -13 -31 14 0 15 -7
19 -35 19 l-35 0 0 -210 0 -210 35 0 35 0 0 140 c0 186 17 220 107 220 74 0
77 -8 83 -187 l5 -158 35 0 35 0 5 145 c3 93 10 153 18 168 23 39 98 55 134
28 31 -23 38 -65 38 -212 l0 -144 40 0 40 0 0 148 c0 164 -7 203 -46 243 -49
51 -148 47 -206 -8 l-29 -27 -22 26 c-38 46 -103 60 -162 34z"/>
<path d="M4095 2689 c-16 -5 -43 -20 -60 -35 l-30 -26 -3 31 c-3 28 -7 31 -38
31 l-34 0 0 -210 0 -210 35 0 35 0 0 133 c1 179 26 226 117 227 93 0 113 -39
113 -224 l0 -136 41 0 41 0 -4 158 c-3 130 -6 164 -22 196 -31 62 -111 89
-191 65z"/>
<path d="M2867 2676 c-83 -31 -126 -101 -127 -204 0 -104 43 -167 141 -202 65
-24 86 -25 147 -5 66 22 146 98 125 119 -16 15 -62 4 -93 -24 -80 -71 -213
-39 -239 57 -17 60 -9 63 170 63 l159 0 0 37 c0 57 -34 116 -81 142 -52 29
-148 37 -202 17z m175 -75 c15 -17 28 -40 28 -51 0 -19 -7 -20 -125 -20 -114
0 -125 2 -125 18 0 18 53 75 80 86 8 3 37 4 64 2 41 -3 55 -9 78 -35z"/>
</g>
</svg>
